<svg preserveAspectRatio="none" width="100%" height="100%" overflow="visible" style="display: block;" viewBox="0 0 11.8 15.7254" fill="none" xmlns="http://www.w3.org/2000/svg">
<g id="Group 14">
<path id="Vector" d="M1.40799 8.71839C0.736011 9.17874 0.4 9.9406 0.4 11.004C0.4 12.599 2.35458 15.3254 4.11714 15.3254C5.87969 15.3254 6.90186 15.3254 8.62702 15.3254C10.3522 15.3254 11.4 13.8126 11.4 12.599C11.4 10.8899 11.4 9.18086 11.4 7.47181C11.4 6.82089 10.8724 6.29324 10.2214 6.29324H10.2179C9.56893 6.29324 9.04286 6.81932 9.04286 7.46824" stroke="var(--stroke-0, #E6E5E5)" stroke-width="0.8" stroke-linecap="round"/>
<path id="Vector_2" d="M1.96414 9.60735V1.57762C1.96414 0.927238 2.49135 0.4 3.14173 0.4C3.14283 0.4 3.14393 0.4 3.14499 0.400004C3.79768 0.401811 4.32588 0.931441 4.32588 1.58415V7.70074" stroke="var(--stroke-0, #E6E5E5)" stroke-width="0.8" stroke-linecap="round"/>
<path id="Vector_3" d="M4.32589 7.47143V5.90283C4.32589 5.24856 4.85628 4.71817 5.51055 4.71817C6.16481 4.71817 6.69517 5.24856 6.69517 5.90283V7.47143" stroke="var(--stroke-0, #E6E5E5)" stroke-width="0.8" stroke-linecap="round" stroke-linejoin="round"/>
<path id="Vector_4" d="M6.68571 7.35652V6.29094C6.68571 5.64005 7.21336 5.11237 7.86429 5.11237C8.51521 5.11237 9.04286 5.64005 9.04286 6.29094V7.46951" stroke="var(--stroke-0, #E6E5E5)" stroke-width="0.8" stroke-linecap="round" stroke-linejoin="round"/>
</g>
</svg>
