<svg preserveAspectRatio="none" width="100%" height="100%" overflow="visible" style="display: block;" viewBox="0 0 51 51" fill="none" xmlns="http://www.w3.org/2000/svg">
<g id="Group 9">
<g id="Ellipse 4" filter="url(#filter0_d_0_9)">
<circle cx="25.5" cy="24.5" r="21.5" fill="var(--fill-0, white)" fill-opacity="0.1" shape-rendering="crispEdges"/>
</g>
<g id="boxicons:share-filled">
<path id="Vector" d="M18.4419 28.3005C19.6038 28.3005 20.6354 27.7576 21.3412 26.9323L28.801 31.1346C28.7902 31.2758 28.7576 31.4169 28.7576 31.5581C28.7576 33.6538 30.4624 35.3586 32.5581 35.3586C34.6538 35.3586 36.3586 33.6538 36.3586 31.5581C36.3586 29.4624 34.6538 27.7576 32.5581 27.7576C31.3962 27.7576 30.3646 28.3005 29.6588 29.1258L22.199 24.9235C22.2098 24.7823 22.2424 24.6412 22.2424 24.5C22.2424 24.3588 22.2207 24.2177 22.199 24.0765L29.6588 19.8742C30.3538 20.6995 31.3854 21.2424 32.5581 21.2424C34.6538 21.2424 36.3586 19.5376 36.3586 17.4419C36.3586 15.3462 34.6538 13.6414 32.5581 13.6414C30.4624 13.6414 28.7576 15.3462 28.7576 17.4419C28.7576 17.5831 28.7793 17.7242 28.801 17.8654L21.3412 22.0677C20.9877 21.641 20.5448 21.2973 20.0438 21.0609C19.5428 20.8245 18.9959 20.7011 18.4419 20.6995C16.3462 20.6995 14.6414 22.4043 14.6414 24.5C14.6414 26.5957 16.3462 28.3005 18.4419 28.3005ZM32.5581 29.9293C33.4593 29.9293 34.1869 30.6568 34.1869 31.5581C34.1869 32.4593 33.4593 33.1869 32.5581 33.1869C31.6568 33.1869 30.9293 32.4593 30.9293 31.5581C30.9293 30.6568 31.6568 29.9293 32.5581 29.9293ZM32.5581 15.8131C33.4593 15.8131 34.1869 16.5407 34.1869 17.4419C34.1869 18.3432 33.4593 19.0707 32.5581 19.0707C31.6568 19.0707 30.9293 18.3432 30.9293 17.4419C30.9293 16.5407 31.6568 15.8131 32.5581 15.8131ZM18.4419 22.8712C19.3432 22.8712 20.0707 23.5987 20.0707 24.5C20.0707 25.4013 19.3432 26.1288 18.4419 26.1288C17.5407 26.1288 16.8131 25.4013 16.8131 24.5C16.8131 23.5987 17.5407 22.8712 18.4419 22.8712Z" fill="var(--fill-0, #D9D9D9)"/>
</g>
</g>
<defs>
<filter id="filter0_d_0_9" x="0" y="0" width="51" height="51" filterUnits="userSpaceOnUse" color-interpolation-filters="sRGB">
<feFlood flood-opacity="0" result="BackgroundImageFix"/>
<feColorMatrix in="SourceAlpha" type="matrix" values="0 0 0 0 0 0 0 0 0 0 0 0 0 0 0 0 0 0 127 0" result="hardAlpha"/>
<feOffset dy="1"/>
<feGaussianBlur stdDeviation="2"/>
<feComposite in2="hardAlpha" operator="out"/>
<feColorMatrix type="matrix" values="0 0 0 0 0 0 0 0 0 0 0 0 0 0 0 0 0 0 0.25 0"/>
<feBlend mode="normal" in2="BackgroundImageFix" result="effect1_dropShadow_0_9"/>
<feBlend mode="normal" in="SourceGraphic" in2="effect1_dropShadow_0_9" result="shape"/>
</filter>
</defs>
</svg>
